<svg width="330" height="48" viewBox="0 0 330 48" fill="none" xmlns="http://www.w3.org/2000/svg">
<path d="M24.4986 48C38.0288 48 48.9972 37.2548 48.9972 24C48.9972 10.7452 38.0288 0 24.4986 0C10.9684 0 0 10.7452 0 24C0 37.2548 10.9684 48 24.4986 48Z" fill="#CF2A1B"/>
<path fill-rule="evenodd" clip-rule="evenodd" d="M24.4976 7.19501C25.4524 7.19501 26.2265 6.43671 26.2265 5.50131C26.2265 4.56591 25.4524 3.80762 24.4976 3.80762C23.5427 3.80762 22.7687 4.56591 22.7687 5.50131C22.7687 6.43671 23.5427 7.19501 24.4976 7.19501ZM25.5027 8.37705H23.5728V10.9597L8.29432 13.8124V15.1516H9.33957L6.92725 31.6942H10.2242V15.1516H11.4304V31.6942H14.7274L12.3151 15.1516H23.5728V18.2833C23.5728 18.8162 24.0048 19.2482 24.5377 19.2482C25.0707 19.2482 25.5027 18.8162 25.5027 18.2833V15.1516H36.7606L34.3482 31.6942H37.6452V15.1516H38.8512V31.6942H42.1481L39.7358 15.1516H40.7813V13.8124L25.5027 10.9597V8.37705ZM24.5778 22.2418L20.1149 31.0647C22.6995 28.9931 26.3758 28.9931 28.9604 31.0647L24.5778 22.2418ZM14.9686 41.4625L19.4315 32.6395L23.814 41.4625C21.2294 39.3909 17.5532 39.3909 14.9686 41.4625ZM29.7245 32.6395L25.2616 41.4625C27.8462 39.3909 31.5224 39.3909 34.107 41.4625L29.7245 32.6395ZM6.92725 32.8761H14.6872L14.0438 34.8455H7.69117L6.92725 32.8761ZM42.1081 32.8761H34.3482L35.1122 34.8455H41.4648L42.1081 32.8761Z" fill="#F7F6F5"/>
<path d="M63.0801 30.0001V29.3441C63.3468 29.2694 63.5654 29.1841 63.7361 29.0881C63.9068 28.9814 64.0508 28.8374 64.1681 28.6561C64.2961 28.4641 64.4241 28.2134 64.5521 27.9041L67.9761 19.6961L67.7041 18.9921L67.8321 18.8001H69.7521L73.3201 27.8881C73.4588 28.2401 73.5868 28.5068 73.7041 28.6881C73.8214 28.8694 73.9601 29.0028 74.1201 29.0881C74.2908 29.1734 74.5094 29.2588 74.7761 29.3441V30.0001H70.0081V29.3441C70.4561 29.2694 70.7814 29.1894 70.9841 29.1041C71.1868 29.0188 71.2934 28.8801 71.3041 28.6881C71.3254 28.4961 71.2721 28.2241 71.1441 27.8721L70.4081 26.0641H66.4881L65.8001 27.7921C65.6721 28.1548 65.6188 28.4374 65.6401 28.6401C65.6614 28.8321 65.7734 28.9761 65.9761 29.0721C66.1894 29.1681 66.5201 29.2588 66.9681 29.3441V30.0001H63.0801ZM66.8081 25.1521H70.0721L68.4881 21.1041H68.3601L66.8081 25.1521ZM75.1955 30.0001V29.3921L75.6755 29.2961C75.8995 29.2428 76.0595 29.1841 76.1555 29.1201C76.2621 29.0561 76.3315 28.9548 76.3635 28.8161C76.3955 28.6668 76.4115 28.4428 76.4115 28.1441V23.3601L75.2915 22.9921V22.4801L78.1875 21.6801L78.3955 21.8081V23.1521H78.5235C78.9075 22.6721 79.3288 22.3041 79.7875 22.0481C80.2568 21.7814 80.7635 21.6481 81.3075 21.6481C81.8621 21.6481 82.3315 21.7761 82.7155 22.0321C83.0995 22.2774 83.3715 22.6508 83.5315 23.1521H83.6435C84.0381 22.6614 84.4701 22.2881 84.9395 22.0321C85.4088 21.7761 85.9101 21.6481 86.4435 21.6481C87.2328 21.6481 87.8515 21.8721 88.2995 22.3201C88.7475 22.7681 88.9715 23.4348 88.9715 24.3201V28.0801C88.9715 28.4001 88.9875 28.6401 89.0195 28.8001C89.0515 28.9494 89.1208 29.0561 89.2275 29.1201C89.3341 29.1841 89.4941 29.2428 89.7075 29.2961L90.1875 29.3921V30.0001H85.8515V29.3921L86.2995 29.2961C86.5021 29.2321 86.6515 29.1734 86.7475 29.1201C86.8435 29.0561 86.9075 28.9494 86.9395 28.8001C86.9715 28.6401 86.9875 28.4001 86.9875 28.0801V24.7841C86.9875 24.1974 86.8595 23.7601 86.6035 23.4721C86.3475 23.1841 85.9741 23.0401 85.4835 23.0401C85.1315 23.0401 84.8168 23.1148 84.5395 23.2641C84.2621 23.4134 83.9741 23.6268 83.6755 23.9041C83.6755 23.9681 83.6755 24.0374 83.6755 24.1121C83.6861 24.1761 83.6915 24.2454 83.6915 24.3201V28.0801C83.6915 28.4001 83.7021 28.6348 83.7235 28.7841C83.7555 28.9334 83.8195 29.0401 83.9155 29.1041C84.0115 29.1681 84.1608 29.2321 84.3635 29.2961L84.8115 29.3921V30.0001H80.5715V29.3921L81.0195 29.2961C81.2221 29.2321 81.3715 29.1734 81.4675 29.1201C81.5635 29.0561 81.6221 28.9494 81.6435 28.8001C81.6755 28.6401 81.6915 28.4001 81.6915 28.0801V24.7841C81.6915 24.1974 81.5688 23.7601 81.3235 23.4721C81.0888 23.1841 80.7315 23.0401 80.2515 23.0401C79.8995 23.0401 79.5795 23.1201 79.2915 23.2801C79.0035 23.4294 78.7048 23.6481 78.3955 23.9361V28.1441C78.3955 28.4428 78.4061 28.6668 78.4275 28.8161C78.4595 28.9548 78.5235 29.0561 78.6195 29.1201C78.7155 29.1734 78.8701 29.2321 79.0835 29.2961L79.5315 29.3921V30.0001H75.1955ZM94.8487 30.1761C94.3154 30.1761 93.8087 30.0854 93.3287 29.9041C92.8594 29.7121 92.4434 29.4401 92.0807 29.0881C91.7181 28.7361 91.4301 28.3041 91.2167 27.7921C91.0141 27.2694 90.9127 26.6881 90.9127 26.0481C90.9127 25.1628 91.0834 24.3948 91.4247 23.7441C91.7661 23.0828 92.2407 22.5708 92.8487 22.2081C93.4567 21.8348 94.1501 21.6481 94.9287 21.6481C95.6327 21.6481 96.2407 21.7921 96.7527 22.0801C97.2647 22.3681 97.6647 22.7788 97.9527 23.3121C98.2514 23.8454 98.4061 24.4854 98.4167 25.2321L98.2727 25.4401H92.8007V24.8161L96.2567 24.5441C96.2567 23.9148 96.1181 23.4081 95.8407 23.0241C95.5741 22.6294 95.2114 22.4321 94.7527 22.4321C94.3474 22.4321 94.0114 22.5654 93.7447 22.8321C93.4887 23.0881 93.2967 23.4348 93.1687 23.8721C93.0407 24.3094 92.9767 24.8108 92.9767 25.3761C92.9767 26.1334 93.0834 26.7628 93.2967 27.2641C93.5207 27.7548 93.8301 28.1228 94.2247 28.3681C94.6301 28.6028 95.1047 28.7201 95.6487 28.7201C96.0861 28.7201 96.4861 28.6348 96.8487 28.4641C97.2221 28.2934 97.5741 28.0481 97.9047 27.7281L98.3687 28.1761C97.9741 28.8481 97.4621 29.3494 96.8327 29.6801C96.2141 30.0108 95.5527 30.1761 94.8487 30.1761ZM99.2349 30.0001V29.3921L99.6989 29.2961C99.9229 29.2428 100.088 29.1841 100.195 29.1201C100.301 29.0561 100.371 28.9494 100.403 28.8001C100.435 28.6508 100.451 28.4268 100.451 28.1281V23.3601L99.3309 22.9761V22.4641L102.227 21.6801L102.435 21.8081V24.0001H102.579C102.803 23.5841 103.043 23.2054 103.299 22.8641C103.555 22.5121 103.848 22.2348 104.179 22.0321C104.509 21.8188 104.877 21.7121 105.283 21.7121H105.491V23.8081L105.315 23.9521H103.443C103.261 24.1121 103.08 24.3041 102.899 24.5281C102.717 24.7521 102.563 24.9708 102.435 25.1841V28.0961C102.435 28.3841 102.451 28.6081 102.483 28.7681C102.525 28.9174 102.595 29.0241 102.691 29.0881C102.797 29.1521 102.968 29.2054 103.203 29.2481L103.971 29.3921V30.0001H99.2349ZM105.997 30.0001V29.3921L106.477 29.2961C106.701 29.2428 106.861 29.1841 106.957 29.1201C107.063 29.0561 107.133 28.9548 107.165 28.8161C107.197 28.6668 107.213 28.4428 107.213 28.1441V23.3601L106.093 22.9761V22.4641L108.989 21.6801L109.197 21.8081V28.1441C109.197 28.4428 109.213 28.6668 109.245 28.8161C109.277 28.9548 109.341 29.0561 109.437 29.1201C109.543 29.1841 109.709 29.2428 109.933 29.2961L110.413 29.3921V30.0001H105.997ZM108.093 20.6721C107.741 20.6721 107.447 20.5601 107.213 20.3361C106.989 20.1014 106.877 19.8134 106.877 19.4721C106.877 19.1308 106.989 18.8481 107.213 18.6241C107.447 18.4001 107.741 18.2881 108.093 18.2881C108.455 18.2881 108.749 18.4001 108.973 18.6241C109.197 18.8481 109.309 19.1308 109.309 19.4721C109.309 19.8134 109.197 20.1014 108.973 20.3361C108.749 20.5601 108.455 20.6721 108.093 20.6721ZM115.148 30.1761C114.433 30.1761 113.788 30.0214 113.212 29.7121C112.636 29.4028 112.183 28.9388 111.852 28.3201C111.521 27.7014 111.356 26.9441 111.356 26.0481C111.356 25.1521 111.537 24.3788 111.9 23.7281C112.273 23.0668 112.78 22.5548 113.42 22.1921C114.071 21.8294 114.791 21.6481 115.58 21.6481C116.092 21.6481 116.583 21.7014 117.052 21.8081C117.532 21.9148 117.959 22.0694 118.332 22.2721V24.7201H117.724L117.388 24.0481C117.132 23.5468 116.844 23.1574 116.524 22.8801C116.215 22.6028 115.831 22.4641 115.372 22.4641C114.977 22.4641 114.636 22.5921 114.348 22.8481C114.06 23.0934 113.836 23.4348 113.676 23.8721C113.516 24.3094 113.436 24.8161 113.436 25.3921C113.436 26.1388 113.543 26.7628 113.756 27.2641C113.98 27.7548 114.289 28.1228 114.684 28.3681C115.079 28.6134 115.527 28.7361 116.028 28.7361C116.465 28.7361 116.849 28.6401 117.18 28.4481C117.521 28.2561 117.831 28.0321 118.108 27.7761L118.572 28.2561C118.359 28.6188 118.076 28.9441 117.724 29.2321C117.383 29.5201 116.993 29.7494 116.556 29.9201C116.119 30.0908 115.649 30.1761 115.148 30.1761ZM121.416 30.1761C121.032 30.1761 120.674 30.1121 120.344 29.9841C120.024 29.8454 119.768 29.6428 119.576 29.3761C119.384 29.1094 119.288 28.7681 119.288 28.3521C119.288 27.7654 119.501 27.2854 119.928 26.9121C120.354 26.5388 121.021 26.2721 121.928 26.1121L123.96 25.7601V24.2081C123.96 23.6534 123.848 23.2588 123.624 23.0241C123.41 22.7894 123.08 22.6721 122.632 22.6721C122.429 22.6721 122.226 22.6988 122.024 22.7521C121.832 22.8054 121.64 22.8748 121.448 22.9601V24.5121H119.624L119.464 24.3201C119.592 23.8401 119.826 23.3974 120.168 22.9921C120.52 22.5868 120.973 22.2614 121.528 22.0161C122.082 21.7708 122.717 21.6481 123.432 21.6481C124.349 21.6481 125 21.8774 125.384 22.3361C125.768 22.7841 125.96 23.4294 125.96 24.2721V28.3681C125.96 28.7734 126.12 28.9761 126.44 28.9761C126.6 28.9761 126.765 28.9174 126.936 28.8001L127.16 29.2801C126.957 29.5574 126.712 29.7761 126.424 29.9361C126.136 30.0961 125.805 30.1761 125.432 30.1761C125.005 30.1761 124.669 30.0694 124.424 29.8561C124.178 29.6428 124.029 29.3174 123.976 28.8801H123.848C123.528 29.3388 123.17 29.6694 122.776 29.8721C122.392 30.0748 121.938 30.1761 121.416 30.1761ZM122.376 28.9601C122.685 28.9601 122.962 28.8908 123.208 28.7521C123.453 28.6134 123.704 28.4108 123.96 28.1441V26.4161L122.776 26.6881C122.274 26.7948 121.912 26.9494 121.688 27.1521C121.464 27.3548 121.352 27.6214 121.352 27.9521C121.352 28.2721 121.448 28.5228 121.64 28.7041C121.832 28.8748 122.077 28.9601 122.376 28.9601ZM127.798 30.0001V29.3921L128.278 29.2961C128.502 29.2428 128.662 29.1841 128.758 29.1201C128.865 29.0561 128.934 28.9548 128.966 28.8161C128.998 28.6668 129.014 28.4428 129.014 28.1441V23.3601L127.894 22.9921V22.4801L130.79 21.6801L130.998 21.8081V23.1521H131.126C131.521 22.6614 131.953 22.2881 132.422 22.0321C132.902 21.7761 133.414 21.6481 133.958 21.6481C134.715 21.6481 135.307 21.8721 135.734 22.3201C136.171 22.7681 136.39 23.4348 136.39 24.3201V28.0801C136.39 28.4001 136.406 28.6401 136.438 28.8001C136.47 28.9494 136.539 29.0561 136.646 29.1201C136.753 29.1841 136.913 29.2428 137.126 29.2961L137.606 29.3921V30.0001H133.27V29.3921L133.734 29.2961C133.926 29.2321 134.07 29.1734 134.166 29.1201C134.262 29.0561 134.326 28.9494 134.358 28.8001C134.39 28.6401 134.406 28.4001 134.406 28.0801V24.7841C134.406 24.1974 134.278 23.7601 134.022 23.4721C133.777 23.1841 133.409 23.0401 132.918 23.0401C132.555 23.0401 132.23 23.1148 131.942 23.2641C131.654 23.4134 131.339 23.6481 130.998 23.9681V28.1441C130.998 28.4428 131.009 28.6668 131.03 28.8161C131.062 28.9548 131.126 29.0561 131.222 29.1201C131.318 29.1734 131.473 29.2321 131.686 29.2961L132.134 29.3921V30.0001H127.798ZM141.499 30.0001V29.3441C141.766 29.2694 141.985 29.1841 142.155 29.0881C142.326 28.9814 142.47 28.8374 142.587 28.6561C142.715 28.4641 142.843 28.2134 142.971 27.9041L146.395 19.6961L146.123 18.9921L146.251 18.8001H148.171L151.739 27.8881C151.878 28.2401 152.006 28.5068 152.123 28.6881C152.241 28.8694 152.379 29.0028 152.539 29.0881C152.71 29.1734 152.929 29.2588 153.195 29.3441V30.0001H148.427V29.3441C148.875 29.2694 149.201 29.1894 149.403 29.1041C149.606 29.0188 149.713 28.8801 149.723 28.6881C149.745 28.4961 149.691 28.2241 149.563 27.8721L148.827 26.0641H144.907L144.219 27.7921C144.091 28.1548 144.038 28.4374 144.059 28.6401C144.081 28.8321 144.193 28.9761 144.395 29.0721C144.609 29.1681 144.939 29.2588 145.387 29.3441V30.0001H141.499ZM145.227 25.1521H148.491L146.907 21.1041H146.779L145.227 25.1521ZM153.615 30.0001V29.3921L154.079 29.2961C154.303 29.2428 154.468 29.1841 154.575 29.1201C154.681 29.0561 154.751 28.9494 154.783 28.8001C154.815 28.6508 154.831 28.4268 154.831 28.1281V23.3601L153.711 22.9761V22.4641L156.607 21.6801L156.815 21.8081V24.0001H156.959C157.183 23.5841 157.423 23.2054 157.679 22.8641C157.935 22.5121 158.228 22.2348 158.559 22.0321C158.889 21.8188 159.257 21.7121 159.663 21.7121H159.871V23.8081L159.695 23.9521H157.823C157.641 24.1121 157.46 24.3041 157.279 24.5281C157.097 24.7521 156.943 24.9708 156.815 25.1841V28.0961C156.815 28.3841 156.831 28.6081 156.863 28.7681C156.905 28.9174 156.975 29.0241 157.071 29.0881C157.177 29.1521 157.348 29.2054 157.583 29.2481L158.351 29.3921V30.0001H153.615ZM165.145 30.1761C164.451 30.1761 163.785 30.0854 163.145 29.9041C162.515 29.7121 161.939 29.4348 161.417 29.0721V20.0961L160.201 19.6481V19.1521L163.209 18.2881L163.417 18.4161V23.1201H163.561C163.923 22.6188 164.323 22.2508 164.761 22.0161C165.198 21.7708 165.689 21.6481 166.233 21.6481C166.766 21.6481 167.235 21.7601 167.641 21.9841C168.046 22.1974 168.387 22.4908 168.665 22.8641C168.942 23.2374 169.15 23.6641 169.289 24.1441C169.427 24.6134 169.497 25.1094 169.497 25.6321C169.497 26.0801 169.449 26.5228 169.353 26.9601C169.257 27.3868 169.102 27.7974 168.889 28.1921C168.675 28.5761 168.398 28.9174 168.057 29.2161C167.715 29.5148 167.299 29.7494 166.809 29.9201C166.329 30.0908 165.774 30.1761 165.145 30.1761ZM165.273 29.3601C165.689 29.3601 166.051 29.2374 166.361 28.9921C166.67 28.7361 166.91 28.3734 167.081 27.9041C167.251 27.4241 167.337 26.8588 167.337 26.2081C167.337 25.5894 167.262 25.0401 167.113 24.5601C166.963 24.0801 166.734 23.7068 166.425 23.4401C166.115 23.1628 165.726 23.0241 165.257 23.0241C164.926 23.0241 164.606 23.1041 164.297 23.2641C163.998 23.4134 163.705 23.6481 163.417 23.9681V26.9601C163.417 27.7601 163.582 28.3628 163.913 28.7681C164.254 29.1628 164.707 29.3601 165.273 29.3601ZM170.482 30.0001V29.3921L170.962 29.2961C171.186 29.2428 171.346 29.1841 171.442 29.1201C171.549 29.0561 171.618 28.9548 171.65 28.8161C171.682 28.6668 171.698 28.4428 171.698 28.1441V23.3601L170.578 22.9761V22.4641L173.474 21.6801L173.682 21.8081V28.1441C173.682 28.4428 173.698 28.6668 173.73 28.8161C173.762 28.9548 173.826 29.0561 173.922 29.1201C174.029 29.1841 174.194 29.2428 174.418 29.2961L174.898 29.3921V30.0001H170.482ZM172.578 20.6721C172.226 20.6721 171.933 20.5601 171.698 20.3361C171.474 20.1014 171.362 19.8134 171.362 19.4721C171.362 19.1308 171.474 18.8481 171.698 18.6241C171.933 18.4001 172.226 18.2881 172.578 18.2881C172.941 18.2881 173.234 18.4001 173.458 18.6241C173.682 18.8481 173.794 19.1308 173.794 19.4721C173.794 19.8134 173.682 20.1014 173.458 20.3361C173.234 20.5601 172.941 20.6721 172.578 20.6721ZM178.882 30.1761C178.178 30.1761 177.634 30.0214 177.25 29.7121C176.876 29.4028 176.69 28.9068 176.69 28.2241V22.9281H175.602V22.4161L178.45 20.0321L178.69 20.1281V22.0321L180.914 21.7761L181.09 21.9681L180.978 22.9281H178.69V27.7281C178.69 28.1868 178.77 28.5068 178.93 28.6881C179.09 28.8588 179.34 28.9441 179.682 28.9441C179.895 28.9441 180.098 28.9068 180.29 28.8321C180.482 28.7574 180.668 28.6508 180.85 28.5121L181.202 29.1361C180.903 29.4454 180.556 29.6961 180.162 29.8881C179.778 30.0801 179.351 30.1761 178.882 30.1761ZM181.74 30.0001V29.3921L182.204 29.2961C182.428 29.2428 182.594 29.1841 182.7 29.1201C182.807 29.0561 182.876 28.9494 182.908 28.8001C182.94 28.6508 182.956 28.4268 182.956 28.1281V23.3601L181.836 22.9761V22.4641L184.732 21.6801L184.94 21.8081V24.0001H185.084C185.308 23.5841 185.548 23.2054 185.804 22.8641C186.06 22.5121 186.354 22.2348 186.684 22.0321C187.015 21.8188 187.383 21.7121 187.788 21.7121H187.996V23.8081L187.82 23.9521H185.948C185.767 24.1121 185.586 24.3041 185.404 24.5281C185.223 24.7521 185.068 24.9708 184.94 25.1841V28.0961C184.94 28.3841 184.956 28.6081 184.988 28.7681C185.031 28.9174 185.1 29.0241 185.196 29.0881C185.303 29.1521 185.474 29.2054 185.708 29.2481L186.476 29.3921V30.0001H181.74ZM190.694 30.1761C190.31 30.1761 189.953 30.1121 189.622 29.9841C189.302 29.8454 189.046 29.6428 188.854 29.3761C188.662 29.1094 188.566 28.7681 188.566 28.3521C188.566 27.7654 188.78 27.2854 189.206 26.9121C189.633 26.5388 190.3 26.2721 191.206 26.1121L193.238 25.7601V24.2081C193.238 23.6534 193.126 23.2588 192.902 23.0241C192.689 22.7894 192.358 22.6721 191.91 22.6721C191.708 22.6721 191.505 22.6988 191.302 22.7521C191.11 22.8054 190.918 22.8748 190.726 22.9601V24.5121H188.902L188.742 24.3201C188.87 23.8401 189.105 23.3974 189.446 22.9921C189.798 22.5868 190.252 22.2614 190.806 22.0161C191.361 21.7708 191.996 21.6481 192.71 21.6481C193.628 21.6481 194.278 21.8774 194.662 22.3361C195.046 22.7841 195.238 23.4294 195.238 24.2721V28.3681C195.238 28.7734 195.398 28.9761 195.718 28.9761C195.878 28.9761 196.044 28.9174 196.214 28.8001L196.438 29.2801C196.236 29.5574 195.99 29.7761 195.702 29.9361C195.414 30.0961 195.084 30.1761 194.71 30.1761C194.284 30.1761 193.948 30.0694 193.702 29.8561C193.457 29.6428 193.308 29.3174 193.254 28.8801H193.126C192.806 29.3388 192.449 29.6694 192.054 29.8721C191.67 30.0748 191.217 30.1761 190.694 30.1761ZM191.654 28.9601C191.964 28.9601 192.241 28.8908 192.486 28.7521C192.732 28.6134 192.982 28.4108 193.238 28.1441V26.4161L192.054 26.6881C191.553 26.7948 191.19 26.9494 190.966 27.1521C190.742 27.3548 190.63 27.6214 190.63 27.9521C190.63 28.2721 190.726 28.5228 190.918 28.7041C191.11 28.8748 191.356 28.9601 191.654 28.9601ZM200.277 30.1761C199.573 30.1761 199.029 30.0214 198.645 29.7121C198.271 29.4028 198.085 28.9068 198.085 28.2241V22.9281H196.997V22.4161L199.845 20.0321L200.085 20.1281V22.0321L202.309 21.7761L202.485 21.9681L202.373 22.9281H200.085V27.7281C200.085 28.1868 200.165 28.5068 200.325 28.6881C200.485 28.8588 200.735 28.9441 201.077 28.9441C201.29 28.9441 201.493 28.9068 201.685 28.8321C201.877 28.7574 202.063 28.6508 202.245 28.5121L202.597 29.1361C202.298 29.4454 201.951 29.6961 201.557 29.8881C201.173 30.0801 200.746 30.1761 200.277 30.1761ZM203.135 30.0001V29.3921L203.615 29.2961C203.839 29.2428 203.999 29.1841 204.095 29.1201C204.202 29.0561 204.271 28.9548 204.303 28.8161C204.335 28.6668 204.351 28.4428 204.351 28.1441V23.3601L203.231 22.9761V22.4641L206.127 21.6801L206.335 21.8081V28.1441C206.335 28.4428 206.351 28.6668 206.383 28.8161C206.415 28.9548 206.479 29.0561 206.575 29.1201C206.682 29.1841 206.847 29.2428 207.071 29.2961L207.551 29.3921V30.0001H203.135ZM205.231 20.6721C204.879 20.6721 204.586 20.5601 204.351 20.3361C204.127 20.1014 204.015 19.8134 204.015 19.4721C204.015 19.1308 204.127 18.8481 204.351 18.6241C204.586 18.4001 204.879 18.2881 205.231 18.2881C205.594 18.2881 205.887 18.4001 206.111 18.6241C206.335 18.8481 206.447 19.1308 206.447 19.4721C206.447 19.8134 206.335 20.1014 206.111 20.3361C205.887 20.5601 205.594 20.6721 205.231 20.6721ZM212.591 30.1761C211.748 30.1761 211.012 30.0054 210.383 29.6641C209.764 29.3121 209.284 28.8214 208.943 28.1921C208.601 27.5628 208.431 26.8214 208.431 25.9681C208.431 25.3921 208.521 24.8481 208.703 24.3361C208.884 23.8134 209.151 23.3494 209.503 22.9441C209.865 22.5388 210.313 22.2241 210.847 22.0001C211.391 21.7654 212.02 21.6481 212.735 21.6481C213.588 21.6481 214.324 21.8241 214.943 22.1761C215.572 22.5174 216.057 23.0081 216.399 23.6481C216.74 24.2774 216.911 25.0188 216.911 25.8721C216.911 26.4481 216.82 26.9974 216.639 27.5201C216.457 28.0321 216.185 28.4908 215.823 28.8961C215.471 29.2908 215.023 29.6054 214.479 29.8401C213.935 30.0641 213.305 30.1761 212.591 30.1761ZM212.751 29.3601C213.199 29.3601 213.567 29.2214 213.855 28.9441C214.153 28.6561 214.377 28.2774 214.527 27.8081C214.676 27.3281 214.751 26.8108 214.751 26.2561C214.751 25.7868 214.708 25.3281 214.623 24.8801C214.548 24.4321 214.42 24.0268 214.239 23.6641C214.068 23.3014 213.844 23.0134 213.567 22.8001C213.289 22.5761 212.953 22.4641 212.559 22.4641C212.121 22.4641 211.753 22.6081 211.455 22.8961C211.156 23.1734 210.932 23.5521 210.783 24.0321C210.644 24.5014 210.575 25.0188 210.575 25.5841C210.575 26.0428 210.612 26.4961 210.687 26.9441C210.772 27.3921 210.9 27.8028 211.071 28.1761C211.252 28.5388 211.476 28.8268 211.743 29.0401C212.02 29.2534 212.356 29.3601 212.751 29.3601ZM217.815 30.0001V29.3921L218.295 29.2961C218.519 29.2428 218.679 29.1841 218.775 29.1201C218.882 29.0561 218.951 28.9548 218.983 28.8161C219.015 28.6668 219.031 28.4428 219.031 28.1441V23.3601L217.911 22.9921V22.4801L220.807 21.6801L221.015 21.8081V23.1521H221.143C221.538 22.6614 221.97 22.2881 222.439 22.0321C222.919 21.7761 223.431 21.6481 223.975 21.6481C224.733 21.6481 225.325 21.8721 225.751 22.3201C226.189 22.7681 226.407 23.4348 226.407 24.3201V28.0801C226.407 28.4001 226.423 28.6401 226.455 28.8001C226.487 28.9494 226.557 29.0561 226.663 29.1201C226.77 29.1841 226.93 29.2428 227.143 29.2961L227.623 29.3921V30.0001H223.287V29.3921L223.751 29.2961C223.943 29.2321 224.087 29.1734 224.183 29.1201C224.279 29.0561 224.343 28.9494 224.375 28.8001C224.407 28.6401 224.423 28.4001 224.423 28.0801V24.7841C224.423 24.1974 224.295 23.7601 224.039 23.4721C223.794 23.1841 223.426 23.0401 222.935 23.0401C222.573 23.0401 222.247 23.1148 221.959 23.2641C221.671 23.4134 221.357 23.6481 221.015 23.9681V28.1441C221.015 28.4428 221.026 28.6668 221.047 28.8161C221.079 28.9548 221.143 29.0561 221.239 29.1201C221.335 29.1734 221.49 29.2321 221.703 29.2961L222.151 29.3921V30.0001H217.815ZM231.517 30.0001V29.3441C231.784 29.2694 232.002 29.1841 232.173 29.0881C232.344 28.9814 232.488 28.8374 232.605 28.6561C232.733 28.4641 232.861 28.2134 232.989 27.9041L236.413 19.6961L236.141 18.9921L236.269 18.8001H238.189L241.757 27.8881C241.896 28.2401 242.024 28.5068 242.141 28.6881C242.258 28.8694 242.397 29.0028 242.557 29.0881C242.728 29.1734 242.946 29.2588 243.213 29.3441V30.0001H238.445V29.3441C238.893 29.2694 239.218 29.1894 239.421 29.1041C239.624 29.0188 239.73 28.8801 239.741 28.6881C239.762 28.4961 239.709 28.2241 239.581 27.8721L238.845 26.0641H234.925L234.237 27.7921C234.109 28.1548 234.056 28.4374 234.077 28.6401C234.098 28.8321 234.21 28.9761 234.413 29.0721C234.626 29.1681 234.957 29.2588 235.405 29.3441V30.0001H231.517ZM235.245 25.1521H238.509L236.925 21.1041H236.797L235.245 25.1521ZM246.752 30.1761C246.251 30.1761 245.744 30.1334 245.232 30.0481C244.731 29.9734 244.246 29.8454 243.776 29.6641V27.4881H244.384L244.656 28.0481C244.87 28.4854 245.126 28.8161 245.424 29.0401C245.734 29.2534 246.176 29.3601 246.752 29.3601C247.051 29.3601 247.312 29.3174 247.536 29.2321C247.771 29.1361 247.952 29.0081 248.08 28.8481C248.208 28.6774 248.272 28.4748 248.272 28.2401C248.272 27.9948 248.203 27.7921 248.064 27.6321C247.936 27.4721 247.734 27.3228 247.456 27.1841C247.179 27.0454 246.806 26.8908 246.336 26.7201C245.952 26.5708 245.568 26.3948 245.184 26.1921C244.811 25.9788 244.502 25.7068 244.256 25.3761C244.011 25.0348 243.888 24.6134 243.888 24.1121C243.888 23.6854 243.979 23.3174 244.16 23.0081C244.342 22.6988 244.582 22.4428 244.88 22.2401C245.19 22.0374 245.542 21.8881 245.936 21.7921C246.342 21.6961 246.768 21.6481 247.216 21.6481C247.643 21.6481 248.086 21.6961 248.544 21.7921C249.014 21.8881 249.446 22.0268 249.84 22.2081V24.2881H249.232L248.96 23.7441C248.747 23.3068 248.491 22.9868 248.192 22.7841C247.904 22.5814 247.536 22.4801 247.088 22.4801C246.822 22.4801 246.582 22.5228 246.368 22.6081C246.155 22.6828 245.99 22.8001 245.872 22.9601C245.755 23.1201 245.696 23.3174 245.696 23.5521C245.696 23.8934 245.84 24.1708 246.128 24.3841C246.427 24.5974 246.912 24.8321 247.584 25.0881C247.979 25.2374 248.368 25.4134 248.752 25.6161C249.147 25.8188 249.472 26.0854 249.728 26.4161C249.984 26.7361 250.112 27.1574 250.112 27.6801C250.112 28.2454 249.952 28.7148 249.632 29.0881C249.323 29.4614 248.912 29.7388 248.4 29.9201C247.899 30.0908 247.35 30.1761 246.752 30.1761ZM254.155 30.1761C253.653 30.1761 253.147 30.1334 252.635 30.0481C252.133 29.9734 251.648 29.8454 251.179 29.6641V27.4881H251.787L252.059 28.0481C252.272 28.4854 252.528 28.8161 252.827 29.0401C253.136 29.2534 253.579 29.3601 254.155 29.3601C254.453 29.3601 254.715 29.3174 254.939 29.2321C255.173 29.1361 255.355 29.0081 255.483 28.8481C255.611 28.6774 255.675 28.4748 255.675 28.2401C255.675 27.9948 255.605 27.7921 255.467 27.6321C255.339 27.4721 255.136 27.3228 254.859 27.1841C254.581 27.0454 254.208 26.8908 253.739 26.7201C253.355 26.5708 252.971 26.3948 252.587 26.1921C252.213 25.9788 251.904 25.7068 251.659 25.3761C251.413 25.0348 251.291 24.6134 251.291 24.1121C251.291 23.6854 251.381 23.3174 251.563 23.0081C251.744 22.6988 251.984 22.4428 252.283 22.2401C252.592 22.0374 252.944 21.8881 253.339 21.7921C253.744 21.6961 254.171 21.6481 254.619 21.6481C255.045 21.6481 255.488 21.6961 255.947 21.7921C256.416 21.8881 256.848 22.0268 257.243 22.2081V24.2881H256.635L256.363 23.7441C256.149 23.3068 255.893 22.9868 255.595 22.7841C255.307 22.5814 254.939 22.4801 254.491 22.4801C254.224 22.4801 253.984 22.5228 253.771 22.6081C253.557 22.6828 253.392 22.8001 253.275 22.9601C253.157 23.1201 253.099 23.3174 253.099 23.5521C253.099 23.8934 253.243 24.1708 253.531 24.3841C253.829 24.5974 254.315 24.8321 254.987 25.0881C255.381 25.2374 255.771 25.4134 256.155 25.6161C256.549 25.8188 256.875 26.0854 257.131 26.4161C257.387 26.7361 257.515 27.1574 257.515 27.6801C257.515 28.2454 257.355 28.7148 257.035 29.0881C256.725 29.4614 256.315 29.7388 255.803 29.9201C255.301 30.0908 254.752 30.1761 254.155 30.1761ZM262.771 30.1761C261.929 30.1761 261.193 30.0054 260.563 29.6641C259.945 29.3121 259.465 28.8214 259.123 28.1921C258.782 27.5628 258.611 26.8214 258.611 25.9681C258.611 25.3921 258.702 24.8481 258.883 24.3361C259.065 23.8134 259.331 23.3494 259.683 22.9441C260.046 22.5388 260.494 22.2241 261.027 22.0001C261.571 21.7654 262.201 21.6481 262.915 21.6481C263.769 21.6481 264.505 21.8241 265.123 22.1761C265.753 22.5174 266.238 23.0081 266.579 23.6481C266.921 24.2774 267.091 25.0188 267.091 25.8721C267.091 26.4481 267.001 26.9974 266.819 27.5201C266.638 28.0321 266.366 28.4908 266.003 28.8961C265.651 29.2908 265.203 29.6054 264.659 29.8401C264.115 30.0641 263.486 30.1761 262.771 30.1761ZM262.931 29.3601C263.379 29.3601 263.747 29.2214 264.035 28.9441C264.334 28.6561 264.558 28.2774 264.707 27.8081C264.857 27.3281 264.931 26.8108 264.931 26.2561C264.931 25.7868 264.889 25.3281 264.803 24.8801C264.729 24.4321 264.601 24.0268 264.419 23.6641C264.249 23.3014 264.025 23.0134 263.747 22.8001C263.47 22.5761 263.134 22.4641 262.739 22.4641C262.302 22.4641 261.934 22.6081 261.635 22.8961C261.337 23.1734 261.113 23.5521 260.963 24.0321C260.825 24.5014 260.755 25.0188 260.755 25.5841C260.755 26.0428 260.793 26.4961 260.867 26.9441C260.953 27.3921 261.081 27.8028 261.251 28.1761C261.433 28.5388 261.657 28.8268 261.923 29.0401C262.201 29.2534 262.537 29.3601 262.931 29.3601ZM271.948 30.1761C271.233 30.1761 270.588 30.0214 270.012 29.7121C269.436 29.4028 268.983 28.9388 268.652 28.3201C268.321 27.7014 268.156 26.9441 268.156 26.0481C268.156 25.1521 268.337 24.3788 268.7 23.7281C269.073 23.0668 269.58 22.5548 270.22 22.1921C270.871 21.8294 271.591 21.6481 272.38 21.6481C272.892 21.6481 273.383 21.7014 273.852 21.8081C274.332 21.9148 274.759 22.0694 275.132 22.2721V24.7201H274.524L274.188 24.0481C273.932 23.5468 273.644 23.1574 273.324 22.8801C273.015 22.6028 272.631 22.4641 272.172 22.4641C271.777 22.4641 271.436 22.5921 271.148 22.8481C270.86 23.0934 270.636 23.4348 270.476 23.8721C270.316 24.3094 270.236 24.8161 270.236 25.3921C270.236 26.1388 270.343 26.7628 270.556 27.2641C270.78 27.7548 271.089 28.1228 271.484 28.3681C271.879 28.6134 272.327 28.7361 272.828 28.7361C273.265 28.7361 273.649 28.6401 273.98 28.4481C274.321 28.2561 274.631 28.0321 274.908 27.7761L275.372 28.2561C275.159 28.6188 274.876 28.9441 274.524 29.2321C274.183 29.5201 273.793 29.7494 273.356 29.9201C272.919 30.0908 272.449 30.1761 271.948 30.1761ZM276.102 30.0001V29.3921L276.582 29.2961C276.806 29.2428 276.966 29.1841 277.062 29.1201C277.168 29.0561 277.238 28.9548 277.27 28.8161C277.302 28.6668 277.318 28.4428 277.318 28.1441V23.3601L276.198 22.9761V22.4641L279.094 21.6801L279.302 21.8081V28.1441C279.302 28.4428 279.318 28.6668 279.35 28.8161C279.382 28.9548 279.446 29.0561 279.542 29.1201C279.648 29.1841 279.814 29.2428 280.038 29.2961L280.518 29.3921V30.0001H276.102ZM278.198 20.6721C277.846 20.6721 277.552 20.5601 277.318 20.3361C277.094 20.1014 276.982 19.8134 276.982 19.4721C276.982 19.1308 277.094 18.8481 277.318 18.6241C277.552 18.4001 277.846 18.2881 278.198 18.2881C278.56 18.2881 278.854 18.4001 279.078 18.6241C279.302 18.8481 279.414 19.1308 279.414 19.4721C279.414 19.8134 279.302 20.1014 279.078 20.3361C278.854 20.5601 278.56 20.6721 278.198 20.6721ZM283.493 30.1761C283.109 30.1761 282.752 30.1121 282.421 29.9841C282.101 29.8454 281.845 29.6428 281.653 29.3761C281.461 29.1094 281.365 28.7681 281.365 28.3521C281.365 27.7654 281.578 27.2854 282.005 26.9121C282.432 26.5388 283.098 26.2721 284.005 26.1121L286.037 25.7601V24.2081C286.037 23.6534 285.925 23.2588 285.701 23.0241C285.488 22.7894 285.157 22.6721 284.709 22.6721C284.506 22.6721 284.304 22.6988 284.101 22.7521C283.909 22.8054 283.717 22.8748 283.525 22.9601V24.5121H281.701L281.541 24.3201C281.669 23.8401 281.904 23.3974 282.245 22.9921C282.597 22.5868 283.05 22.2614 283.605 22.0161C284.16 21.7708 284.794 21.6481 285.509 21.6481C286.426 21.6481 287.077 21.8774 287.461 22.3361C287.845 22.7841 288.037 23.4294 288.037 24.2721V28.3681C288.037 28.7734 288.197 28.9761 288.517 28.9761C288.677 28.9761 288.842 28.9174 289.013 28.8001L289.237 29.2801C289.034 29.5574 288.789 29.7761 288.501 29.9361C288.213 30.0961 287.882 30.1761 287.509 30.1761C287.082 30.1761 286.746 30.0694 286.501 29.8561C286.256 29.6428 286.106 29.3174 286.053 28.8801H285.925C285.605 29.3388 285.248 29.6694 284.853 29.8721C284.469 30.0748 284.016 30.1761 283.493 30.1761ZM284.453 28.9601C284.762 28.9601 285.04 28.8908 285.285 28.7521C285.53 28.6134 285.781 28.4108 286.037 28.1441V26.4161L284.853 26.6881C284.352 26.7948 283.989 26.9494 283.765 27.1521C283.541 27.3548 283.429 27.6214 283.429 27.9521C283.429 28.2721 283.525 28.5228 283.717 28.7041C283.909 28.8748 284.154 28.9601 284.453 28.9601ZM293.075 30.1761C292.371 30.1761 291.827 30.0214 291.443 29.7121C291.07 29.4028 290.883 28.9068 290.883 28.2241V22.9281H289.795V22.4161L292.643 20.0321L292.883 20.1281V22.0321L295.107 21.7761L295.283 21.9681L295.171 22.9281H292.883V27.7281C292.883 28.1868 292.963 28.5068 293.123 28.6881C293.283 28.8588 293.534 28.9441 293.875 28.9441C294.089 28.9441 294.291 28.9068 294.483 28.8321C294.675 28.7574 294.862 28.6508 295.043 28.5121L295.395 29.1361C295.097 29.4454 294.75 29.6961 294.355 29.8881C293.971 30.0801 293.545 30.1761 293.075 30.1761ZM295.934 30.0001V29.3921L296.414 29.2961C296.638 29.2428 296.798 29.1841 296.894 29.1201C297.001 29.0561 297.07 28.9548 297.102 28.8161C297.134 28.6668 297.15 28.4428 297.15 28.1441V23.3601L296.03 22.9761V22.4641L298.926 21.6801L299.134 21.8081V28.1441C299.134 28.4428 299.15 28.6668 299.182 28.8161C299.214 28.9548 299.278 29.0561 299.374 29.1201C299.481 29.1841 299.646 29.2428 299.87 29.2961L300.35 29.3921V30.0001H295.934ZM298.03 20.6721C297.678 20.6721 297.385 20.5601 297.15 20.3361C296.926 20.1014 296.814 19.8134 296.814 19.4721C296.814 19.1308 296.926 18.8481 297.15 18.6241C297.385 18.4001 297.678 18.2881 298.03 18.2881C298.393 18.2881 298.686 18.4001 298.91 18.6241C299.134 18.8481 299.246 19.1308 299.246 19.4721C299.246 19.8134 299.134 20.1014 298.91 20.3361C298.686 20.5601 298.393 20.6721 298.03 20.6721ZM305.389 30.1761C304.547 30.1761 303.811 30.0054 303.181 29.6641C302.563 29.3121 302.083 28.8214 301.741 28.1921C301.4 27.5628 301.229 26.8214 301.229 25.9681C301.229 25.3921 301.32 24.8481 301.501 24.3361C301.683 23.8134 301.949 23.3494 302.301 22.9441C302.664 22.5388 303.112 22.2241 303.645 22.0001C304.189 21.7654 304.819 21.6481 305.533 21.6481C306.387 21.6481 307.123 21.8241 307.741 22.1761C308.371 22.5174 308.856 23.0081 309.197 23.6481C309.539 24.2774 309.709 25.0188 309.709 25.8721C309.709 26.4481 309.619 26.9974 309.437 27.5201C309.256 28.0321 308.984 28.4908 308.621 28.8961C308.269 29.2908 307.821 29.6054 307.277 29.8401C306.733 30.0641 306.104 30.1761 305.389 30.1761ZM305.549 29.3601C305.997 29.3601 306.365 29.2214 306.653 28.9441C306.952 28.6561 307.176 28.2774 307.325 27.8081C307.475 27.3281 307.549 26.8108 307.549 26.2561C307.549 25.7868 307.507 25.3281 307.421 24.8801C307.347 24.4321 307.219 24.0268 307.037 23.6641C306.867 23.3014 306.643 23.0134 306.365 22.8001C306.088 22.5761 305.752 22.4641 305.357 22.4641C304.92 22.4641 304.552 22.6081 304.253 22.8961C303.955 23.1734 303.731 23.5521 303.581 24.0321C303.443 24.5014 303.373 25.0188 303.373 25.5841C303.373 26.0428 303.411 26.4961 303.485 26.9441C303.571 27.3921 303.699 27.8028 303.869 28.1761C304.051 28.5388 304.275 28.8268 304.541 29.0401C304.819 29.2534 305.155 29.3601 305.549 29.3601ZM310.614 30.0001V29.3921L311.094 29.2961C311.318 29.2428 311.478 29.1841 311.574 29.1201C311.681 29.0561 311.75 28.9548 311.782 28.8161C311.814 28.6668 311.83 28.4428 311.83 28.1441V23.3601L310.71 22.9921V22.4801L313.606 21.6801L313.814 21.8081V23.1521H313.942C314.337 22.6614 314.769 22.2881 315.238 22.0321C315.718 21.7761 316.23 21.6481 316.774 21.6481C317.531 21.6481 318.123 21.8721 318.55 22.3201C318.987 22.7681 319.206 23.4348 319.206 24.3201V28.0801C319.206 28.4001 319.222 28.6401 319.254 28.8001C319.286 28.9494 319.355 29.0561 319.462 29.1201C319.569 29.1841 319.729 29.2428 319.942 29.2961L320.422 29.3921V30.0001H316.086V29.3921L316.55 29.2961C316.742 29.2321 316.886 29.1734 316.982 29.1201C317.078 29.0561 317.142 28.9494 317.174 28.8001C317.206 28.6401 317.222 28.4001 317.222 28.0801V24.7841C317.222 24.1974 317.094 23.7601 316.838 23.4721C316.593 23.1841 316.225 23.0401 315.734 23.0401C315.371 23.0401 315.046 23.1148 314.758 23.2641C314.47 23.4134 314.155 23.6481 313.814 23.9681V28.1441C313.814 28.4428 313.825 28.6668 313.846 28.8161C313.878 28.9548 313.942 29.0561 314.038 29.1201C314.134 29.1734 314.289 29.2321 314.502 29.2961L314.95 29.3921V30.0001H310.614ZM324.122 25.6481C323.407 25.6481 322.767 25.4934 322.202 25.1841C321.647 24.8641 321.21 24.4268 320.89 23.8721C320.57 23.3174 320.41 22.6828 320.41 21.9681C320.41 21.2534 320.57 20.6188 320.89 20.0641C321.21 19.5094 321.647 19.0774 322.202 18.7681C322.767 18.4481 323.407 18.2881 324.122 18.2881C324.847 18.2881 325.487 18.4481 326.042 18.7681C326.596 19.0774 327.034 19.5094 327.354 20.0641C327.674 20.6188 327.834 21.2534 327.834 21.9681C327.834 22.6828 327.674 23.3174 327.354 23.8721C327.034 24.4268 326.596 24.8641 326.042 25.1841C325.487 25.4934 324.847 25.6481 324.122 25.6481ZM324.122 25.1201C324.73 25.1201 325.268 24.9868 325.738 24.7201C326.207 24.4428 326.575 24.0694 326.842 23.6001C327.119 23.1201 327.258 22.5761 327.258 21.9681C327.258 21.3494 327.119 20.8054 326.842 20.3361C326.575 19.8668 326.207 19.4988 325.738 19.2321C325.268 18.9548 324.73 18.8161 324.122 18.8161C323.514 18.8161 322.97 18.9548 322.49 19.2321C322.02 19.4988 321.652 19.8668 321.386 20.3361C321.119 20.8054 320.986 21.3494 320.986 21.9681C320.986 22.5761 321.119 23.1201 321.386 23.6001C321.652 24.0694 322.02 24.4428 322.49 24.7201C322.97 24.9868 323.514 25.1201 324.122 25.1201ZM322.282 23.7921V23.4881L322.458 23.4561C322.575 23.4241 322.65 23.3814 322.682 23.3281C322.724 23.2748 322.746 23.2001 322.746 23.1041V20.7841C322.746 20.6561 322.724 20.5654 322.682 20.5121C322.65 20.4588 322.575 20.4214 322.458 20.4001L322.282 20.3681V20.0641H324.186C324.73 20.0641 325.146 20.1601 325.434 20.3521C325.722 20.5334 325.866 20.8001 325.866 21.1521C325.866 21.4294 325.775 21.6534 325.594 21.8241C325.412 21.9948 325.215 22.1014 325.002 22.1441L326.026 23.4881V23.7921H325.114L324.106 22.2881L323.658 22.2721V23.1041C323.658 23.2001 323.674 23.2748 323.706 23.3281C323.738 23.3708 323.818 23.4134 323.946 23.4561L324.106 23.4881V23.7921H322.282ZM323.658 21.8241H324.122C324.378 21.8241 324.57 21.7654 324.698 21.6481C324.826 21.5308 324.89 21.3708 324.89 21.1681C324.89 20.9441 324.82 20.7788 324.682 20.6721C324.554 20.5654 324.372 20.5121 324.138 20.5121H323.658V21.8241Z" fill="#272423"/>
</svg>
