<svg width="296" height="47" viewBox="0 0 296 47" fill="none" xmlns="http://www.w3.org/2000/svg">
<path d="M23.1248 46.2901C35.8962 46.2901 46.2496 35.9277 46.2496 23.145C46.2496 10.3624 35.8962 0 23.1248 0C10.3533 0 0 10.3624 0 23.145C0 35.9277 10.3533 46.2901 23.1248 46.2901Z" fill="#CF2A1B"/>
<path fill-rule="evenodd" clip-rule="evenodd" d="M23.1231 6.93664C24.0243 6.93664 24.755 6.20536 24.755 5.30328C24.755 4.40119 24.0243 3.66992 23.1231 3.66992C22.2217 3.66992 21.4911 4.40119 21.4911 5.30328C21.4911 6.20536 22.2217 6.93664 23.1231 6.93664ZM24.0717 8.07658H22.2501V10.5672L7.82849 13.3183V14.6099H8.81514L6.53809 30.5632H9.65014V14.6099H10.7887V30.5632H13.9008L11.6237 14.6099H22.2501V17.6497C22.2501 18.1527 22.6579 18.5604 23.161 18.5604C23.664 18.5604 24.0717 18.1527 24.0717 17.6497V14.6099H34.6984L32.4213 30.5632H35.5333V14.6099H36.6718V30.5632H39.7838L37.5067 14.6099H38.4936V13.3183L24.0717 10.5672V8.07658ZM23.1987 21.4473L18.9862 29.956C21.4141 27.9677 24.9076 27.9677 27.3355 29.956L23.1987 21.4473ZM14.1284 39.9833L18.341 31.4748L22.4778 39.9833C20.0499 37.995 16.5564 37.995 14.1284 39.9833ZM28.0569 31.4748L23.8442 39.9833C26.2723 37.995 29.7656 37.995 32.1936 39.9833L28.0569 31.4748ZM6.53809 31.7029H13.8628L13.2556 33.6021H7.25917L6.53809 31.7029ZM39.746 31.7029H32.4213L33.1423 33.6021H39.1387L39.746 31.7029Z" fill="#F7F6F5"/>
<path d="M57.978 18.8045V17.8555C58.3638 17.7475 58.68 17.6241 58.927 17.4852C59.1739 17.3309 59.3822 17.1225 59.5519 16.8603C59.737 16.5825 59.9222 16.2199 60.1074 15.7725L65.0604 3.89907L64.6669 2.88069L64.8521 2.60295H67.6295L72.7908 15.7493C72.9915 16.2585 73.1766 16.6443 73.3463 16.9066C73.516 17.1688 73.7166 17.3618 73.9481 17.4852C74.195 17.6086 74.5112 17.7321 74.897 17.8555V18.8045H67.9998V17.8555C68.6479 17.7475 69.1185 17.6317 69.4117 17.5083C69.7049 17.385 69.8591 17.1843 69.8746 16.9066C69.9054 16.6288 69.8283 16.2354 69.6431 15.7262L68.5785 13.1108H62.9079L61.9127 15.6105C61.7275 16.1351 61.6504 16.5439 61.6812 16.8371C61.712 17.1149 61.8741 17.3232 62.1673 17.4621C62.4758 17.6009 62.9542 17.7321 63.6023 17.8555V18.8045H57.978ZM63.3708 11.7915H68.0924L65.801 5.93583H65.6159L63.3708 11.7915ZM75.5037 18.8045V17.925L76.1981 17.7861C76.5221 17.709 76.7536 17.6241 76.8924 17.5315C77.0466 17.4389 77.147 17.2924 77.1933 17.0917C77.2396 16.8758 77.2628 16.5517 77.2628 16.1196V9.19928L75.6426 8.66694V7.9263L79.8319 6.76905L80.1327 6.95421V8.89839H80.3179C80.8734 8.20404 81.4828 7.67171 82.1464 7.30139C82.8252 6.91563 83.5582 6.72276 84.3451 6.72276C85.1474 6.72276 85.8264 6.90792 86.3819 7.27824C86.9374 7.63313 87.3308 8.17319 87.5623 8.89839H87.7243C88.2951 8.18861 88.92 7.64856 89.5991 7.27824C90.2779 6.90792 91.0031 6.72276 91.7747 6.72276C92.9165 6.72276 93.8115 7.04679 94.4595 7.69485C95.1076 8.34291 95.4316 9.30729 95.4316 10.588V16.0271C95.4316 16.49 95.4548 16.8371 95.501 17.0686C95.5473 17.2846 95.6476 17.4389 95.8019 17.5315C95.9561 17.6241 96.1876 17.709 96.4963 17.7861L97.1906 17.925V18.8045H90.9183V17.925L91.5664 17.7861C91.8595 17.6935 92.0756 17.6086 92.2144 17.5315C92.3533 17.4389 92.4459 17.2846 92.4922 17.0686C92.5385 16.8371 92.5616 16.49 92.5616 16.0271V11.2592C92.5616 10.4105 92.3765 9.77791 92.0061 9.36129C91.6358 8.94468 91.0957 8.73638 90.386 8.73638C89.8768 8.73638 89.4216 8.84439 89.0204 9.06041C88.6192 9.27642 88.2025 9.58503 87.7706 9.98621C87.7706 10.0788 87.7706 10.1791 87.7706 10.2871C87.7859 10.3797 87.7937 10.48 87.7937 10.588V16.0271C87.7937 16.49 87.8091 16.8295 87.84 17.0454C87.8863 17.2614 87.9789 17.4158 88.1178 17.5083C88.2566 17.6009 88.4726 17.6935 88.7658 17.7861L89.4139 17.925V18.8045H83.2805V17.925L83.9285 17.7861C84.2216 17.6935 84.4377 17.6086 84.5766 17.5315C84.7155 17.4389 84.8002 17.2846 84.8312 17.0686C84.8775 16.8371 84.9006 16.49 84.9006 16.0271V11.2592C84.9006 10.4105 84.7231 9.77791 84.3683 9.36129C84.0288 8.94468 83.5119 8.73638 82.8176 8.73638C82.3084 8.73638 81.8455 8.8521 81.4289 9.08355C81.0123 9.29957 80.5802 9.61589 80.1327 10.0325V16.1196C80.1327 16.5517 80.1481 16.8758 80.179 17.0917C80.2253 17.2924 80.3179 17.4389 80.4568 17.5315C80.5956 17.6086 80.8193 17.6935 81.128 17.7861L81.776 17.925V18.8045H75.5037ZM103.933 19.0591C103.162 19.0591 102.429 18.9279 101.735 18.6656C101.056 18.3879 100.454 17.9944 99.9293 17.4852C99.4047 16.976 98.9881 16.3511 98.6794 15.6105C98.3864 14.8543 98.2397 14.0134 98.2397 13.0876C98.2397 11.807 98.4866 10.696 98.9803 9.75476C99.4742 8.7981 100.161 8.05746 101.04 7.53284C101.92 6.99279 102.923 6.72276 104.049 6.72276C105.067 6.72276 105.947 6.93107 106.688 7.34768C107.428 7.76429 108.007 8.35835 108.423 9.12984C108.856 9.90134 109.079 10.8271 109.095 11.9072L108.886 12.2081H100.971V11.3055L105.97 10.912C105.97 10.0016 105.77 9.26871 105.368 8.71323C104.983 8.14232 104.458 7.85687 103.794 7.85687C103.208 7.85687 102.722 8.04974 102.336 8.43549C101.966 8.80581 101.688 9.30729 101.503 9.93992C101.318 10.5725 101.225 11.2978 101.225 12.1156C101.225 13.2111 101.38 14.1215 101.688 14.8467C102.012 15.5565 102.46 16.0888 103.031 16.4437C103.617 16.7832 104.304 16.9529 105.091 16.9529C105.723 16.9529 106.302 16.8295 106.826 16.5825C107.367 16.3356 107.876 15.9808 108.354 15.5179L109.025 16.1659C108.454 17.138 107.714 17.8632 106.803 18.3416C105.908 18.8199 104.952 19.0591 103.933 19.0591ZM110.278 18.8045V17.925L110.949 17.7861C111.274 17.709 111.513 17.6241 111.667 17.5315C111.821 17.4389 111.922 17.2846 111.968 17.0686C112.014 16.8526 112.037 16.5286 112.037 16.0965V9.19928L110.417 8.6438V7.90316L114.606 6.76905L114.907 6.95421V10.1251H115.116C115.44 9.52331 115.787 8.97554 116.157 8.48178C116.527 7.97259 116.952 7.57142 117.43 7.27824C117.908 6.96965 118.441 6.81534 119.027 6.81534H119.328V9.84734L119.073 10.0556H116.365C116.103 10.2871 115.841 10.5648 115.578 10.8889C115.316 11.2129 115.092 11.5292 114.907 11.8378V16.0502C114.907 16.4668 114.93 16.7908 114.977 17.0223C115.038 17.2383 115.139 17.3926 115.278 17.4852C115.432 17.5778 115.679 17.6549 116.018 17.7167L117.129 17.925V18.8045H110.278ZM120.06 18.8045V17.925L120.754 17.7861C121.078 17.709 121.309 17.6241 121.448 17.5315C121.603 17.4389 121.703 17.2924 121.749 17.0917C121.796 16.8758 121.819 16.5517 121.819 16.1196V9.19928L120.199 8.6438V7.90316L124.388 6.76905L124.689 6.95421V16.1196C124.689 16.5517 124.712 16.8758 124.758 17.0917C124.804 17.2924 124.897 17.4389 125.036 17.5315C125.19 17.6241 125.429 17.709 125.753 17.7861L126.448 17.925V18.8045H120.06ZM123.092 5.31091C122.582 5.31091 122.158 5.1489 121.819 4.82487C121.495 4.4854 121.333 4.06879 121.333 3.57504C121.333 3.08128 121.495 2.67238 121.819 2.34835C122.158 2.02432 122.582 1.8623 123.092 1.8623C123.616 1.8623 124.041 2.02432 124.365 2.34835C124.689 2.67238 124.851 3.08128 124.851 3.57504C124.851 4.06879 124.689 4.4854 124.365 4.82487C124.041 5.1489 123.616 5.31091 123.092 5.31091ZM133.298 19.0591C132.264 19.0591 131.33 18.8353 130.497 18.3879C129.664 17.9404 129.008 17.2692 128.53 16.3742C128.051 15.4792 127.812 14.3838 127.812 13.0876C127.812 11.7915 128.075 10.6729 128.599 9.73162C129.139 8.77496 129.872 8.03432 130.798 7.50969C131.739 6.98507 132.781 6.72276 133.923 6.72276C134.663 6.72276 135.373 6.79991 136.052 6.95421C136.746 7.10852 137.364 7.33224 137.904 7.62542V11.1666H137.024L136.538 10.1945C136.168 9.46931 135.751 8.9061 135.288 8.50493C134.841 8.10375 134.285 7.90316 133.622 7.90316C133.051 7.90316 132.557 8.08832 132.14 8.45864C131.724 8.81352 131.4 9.30729 131.168 9.93992C130.937 10.5725 130.821 11.3055 130.821 12.1387C130.821 13.2188 130.976 14.1215 131.284 14.8467C131.608 15.5565 132.056 16.0888 132.627 16.4437C133.197 16.7985 133.846 16.976 134.571 16.976C135.203 16.976 135.759 16.8371 136.237 16.5594C136.731 16.2817 137.178 15.9576 137.58 15.5873L138.251 16.2817C137.942 16.8063 137.533 17.2769 137.024 17.6935C136.53 18.1101 135.967 18.4418 135.335 18.6887C134.702 18.9357 134.023 19.0591 133.298 19.0591ZM142.364 19.0591C141.809 19.0591 141.292 18.9665 140.813 18.7813C140.35 18.5807 139.98 18.2876 139.702 17.9018C139.425 17.516 139.286 17.0223 139.286 16.4205C139.286 15.5718 139.594 14.8775 140.212 14.3375C140.829 13.7974 141.793 13.4117 143.105 13.1802L146.045 12.671V10.426C146.045 9.6236 145.883 9.0527 145.559 8.71323C145.249 8.37377 144.772 8.20404 144.123 8.20404C143.83 8.20404 143.537 8.24262 143.244 8.31977C142.966 8.39691 142.688 8.49722 142.41 8.62065V10.8657H139.772L139.54 10.588C139.726 9.89363 140.065 9.25328 140.559 8.66694C141.068 8.08061 141.724 7.60998 142.526 7.2551C143.329 6.90021 144.246 6.72276 145.281 6.72276C146.608 6.72276 147.549 7.0545 148.105 7.718C148.66 8.36606 148.938 9.29957 148.938 10.5185V16.4437C148.938 17.03 149.169 17.3232 149.632 17.3232C149.864 17.3232 150.102 17.2383 150.35 17.0686L150.674 17.7629C150.38 18.1641 150.026 18.4804 149.609 18.7119C149.193 18.9433 148.714 19.0591 148.174 19.0591C147.557 19.0591 147.07 18.9047 146.716 18.5962C146.36 18.2876 146.145 17.8169 146.068 17.1843H145.883C145.42 17.8479 144.902 18.3261 144.331 18.6193C143.776 18.9125 143.12 19.0591 142.364 19.0591ZM143.753 17.3C144.2 17.3 144.601 17.1998 144.957 16.9992C145.311 16.7985 145.675 16.5054 146.045 16.1196V13.62L144.331 14.0134C143.606 14.1678 143.082 14.3915 142.758 14.6847C142.434 14.9779 142.272 15.3635 142.272 15.8419C142.272 16.3048 142.41 16.6675 142.688 16.9297C142.966 17.1766 143.321 17.3 143.753 17.3ZM151.597 18.8045V17.925L152.291 17.7861C152.615 17.709 152.847 17.6241 152.985 17.5315C153.14 17.4389 153.24 17.2924 153.286 17.0917C153.333 16.8758 153.356 16.5517 153.356 16.1196V9.19928L151.736 8.66694V7.9263L155.925 6.76905L156.226 6.95421V8.89839H156.411C156.982 8.18861 157.607 7.64856 158.286 7.27824C158.98 6.90792 159.721 6.72276 160.508 6.72276C161.603 6.72276 162.459 7.04679 163.077 7.69485C163.709 8.34291 164.026 9.30729 164.026 10.588V16.0271C164.026 16.49 164.049 16.8371 164.095 17.0686C164.141 17.2846 164.241 17.4389 164.396 17.5315C164.551 17.6241 164.782 17.709 165.09 17.7861L165.785 17.925V18.8045H159.512V17.925L160.184 17.7861C160.461 17.6935 160.67 17.6086 160.809 17.5315C160.947 17.4389 161.04 17.2846 161.086 17.0686C161.133 16.8371 161.156 16.49 161.156 16.0271V11.2592C161.156 10.4105 160.971 9.77791 160.6 9.36129C160.246 8.94468 159.713 8.73638 159.003 8.73638C158.478 8.73638 158.008 8.84439 157.591 9.06041C157.175 9.27642 156.719 9.61589 156.226 10.0788V16.1196C156.226 16.5517 156.242 16.8758 156.272 17.0917C156.318 17.2924 156.411 17.4389 156.55 17.5315C156.689 17.6086 156.913 17.6935 157.221 17.7861L157.869 17.925V18.8045H151.597ZM171.416 18.8045V17.8555C171.802 17.7475 172.119 17.6241 172.365 17.4852C172.612 17.3309 172.821 17.1225 172.99 16.8603C173.175 16.5825 173.36 16.2199 173.546 15.7725L178.499 3.89907L178.105 2.88069L178.29 2.60295H181.068L186.229 15.7493C186.43 16.2585 186.615 16.6443 186.784 16.9066C186.955 17.1688 187.155 17.3618 187.386 17.4852C187.634 17.6086 187.95 17.7321 188.335 17.8555V18.8045H181.438V17.8555C182.086 17.7475 182.558 17.6317 182.85 17.5083C183.143 17.385 183.298 17.1843 183.313 16.9066C183.345 16.6288 183.266 16.2354 183.081 15.7262L182.017 13.1108H176.346L175.351 15.6105C175.166 16.1351 175.089 16.5439 175.119 16.8371C175.151 17.1149 175.313 17.3232 175.605 17.4621C175.915 17.6009 176.392 17.7321 177.04 17.8555V18.8045H171.416ZM176.809 11.7915H181.531L179.239 5.93583H179.054L176.809 11.7915ZM188.943 18.8045V17.925L189.614 17.7861C189.938 17.709 190.177 17.6241 190.331 17.5315C190.485 17.4389 190.586 17.2846 190.632 17.0686C190.679 16.8526 190.702 16.5286 190.702 16.0965V9.19928L189.082 8.6438V7.90316L193.271 6.76905L193.572 6.95421V10.1251H193.78C194.104 9.52331 194.451 8.97554 194.822 8.48178C195.192 7.97259 195.616 7.57142 196.095 7.27824C196.572 6.96965 197.104 6.81534 197.692 6.81534H197.992V9.84734L197.738 10.0556H195.03C194.767 10.2871 194.505 10.5648 194.243 10.8889C193.98 11.2129 193.757 11.5292 193.572 11.8378V16.0502C193.572 16.4668 193.595 16.7908 193.641 17.0223C193.702 17.2383 193.803 17.3926 193.942 17.4852C194.095 17.5778 194.343 17.6549 194.683 17.7167L195.794 17.925V18.8045H188.943ZM205.622 19.0591C204.618 19.0591 203.654 18.9279 202.729 18.6656C201.817 18.3879 200.984 17.9867 200.229 17.4621V4.47769L198.47 3.82963V3.11214L202.821 1.8623L203.122 2.04746V8.8521H203.33C203.854 8.1269 204.433 7.59456 205.066 7.2551C205.698 6.90021 206.409 6.72276 207.195 6.72276C207.967 6.72276 208.645 6.88478 209.232 7.20881C209.818 7.5174 210.311 7.94174 210.714 8.48178C211.114 9.02183 211.415 9.63904 211.616 10.3334C211.816 11.0123 211.917 11.7298 211.917 12.4859C211.917 13.1339 211.848 13.7743 211.709 14.4069C211.57 15.0242 211.346 15.6181 211.038 16.1891C210.728 16.7446 210.327 17.2383 209.834 17.6704C209.339 18.1024 208.738 18.4418 208.029 18.6887C207.334 18.9357 206.532 19.0591 205.622 19.0591ZM205.807 17.8787C206.409 17.8787 206.932 17.7012 207.381 17.3463C207.828 16.976 208.175 16.4513 208.422 15.7725C208.668 15.0781 208.792 14.2603 208.792 13.3191C208.792 12.4241 208.684 11.6295 208.468 10.9352C208.251 10.2408 207.92 9.70076 207.473 9.315C207.025 8.91383 206.462 8.71323 205.784 8.71323C205.305 8.71323 204.842 8.82896 204.395 9.06041C203.962 9.27642 203.539 9.61589 203.122 10.0788V14.4069C203.122 15.5642 203.361 16.436 203.839 17.0223C204.333 17.5933 204.988 17.8787 205.807 17.8787ZM213.342 18.8045V17.925L214.036 17.7861C214.36 17.709 214.592 17.6241 214.731 17.5315C214.885 17.4389 214.985 17.2924 215.032 17.0917C215.078 16.8758 215.101 16.5517 215.101 16.1196V9.19928L213.481 8.6438V7.90316L217.67 6.76905L217.971 6.95421V16.1196C217.971 16.5517 217.994 16.8758 218.04 17.0917C218.087 17.2924 218.179 17.4389 218.318 17.5315C218.473 17.6241 218.712 17.709 219.036 17.7861L219.73 17.925V18.8045H213.342ZM216.374 5.31091C215.865 5.31091 215.441 5.1489 215.101 4.82487C214.777 4.4854 214.615 4.06879 214.615 3.57504C214.615 3.08128 214.777 2.67238 215.101 2.34835C215.441 2.02432 215.865 1.8623 216.374 1.8623C216.899 1.8623 217.323 2.02432 217.647 2.34835C217.971 2.67238 218.133 3.08128 218.133 3.57504C218.133 4.06879 217.971 4.4854 217.647 4.82487C217.323 5.1489 216.899 5.31091 216.374 5.31091ZM225.493 19.0591C224.475 19.0591 223.688 18.8353 223.132 18.3879C222.591 17.9404 222.322 17.2229 222.322 16.2354V8.57436H220.748V7.83372L224.868 4.38511L225.215 4.52398V7.27824L228.432 6.90792L228.687 7.18566L228.525 8.57436H225.215V15.5179C225.215 16.1814 225.331 16.6443 225.562 16.9066C225.794 17.1535 226.156 17.2769 226.65 17.2769C226.958 17.2769 227.252 17.2229 227.53 17.1149C227.808 17.0068 228.077 16.8526 228.34 16.652L228.849 17.5546C228.417 18.0021 227.915 18.3647 227.345 18.6425C226.789 18.9202 226.172 19.0591 225.493 19.0591ZM229.627 18.8045V17.925L230.299 17.7861C230.623 17.709 230.863 17.6241 231.016 17.5315C231.171 17.4389 231.271 17.2846 231.317 17.0686C231.363 16.8526 231.386 16.5286 231.386 16.0965V9.19928L229.766 8.6438V7.90316L233.955 6.76905L234.256 6.95421V10.1251H234.465C234.789 9.52331 235.136 8.97554 235.506 8.48178C235.877 7.97259 236.302 7.57142 236.779 7.27824C237.258 6.96965 237.79 6.81534 238.376 6.81534H238.677V9.84734L238.422 10.0556H235.715C235.453 10.2871 235.191 10.5648 234.928 10.8889C234.666 11.2129 234.442 11.5292 234.256 11.8378V16.0502C234.256 16.4668 234.28 16.7908 234.326 17.0223C234.388 17.2383 234.488 17.3926 234.627 17.4852C234.781 17.5778 235.029 17.6549 235.367 17.7167L236.478 17.925V18.8045H229.627ZM242.58 19.0591C242.024 19.0591 241.508 18.9665 241.029 18.7813C240.566 18.5807 240.196 18.2876 239.918 17.9018C239.64 17.516 239.502 17.0223 239.502 16.4205C239.502 15.5718 239.811 14.8775 240.427 14.3375C241.045 13.7974 242.01 13.4117 243.321 13.1802L246.26 12.671V10.426C246.26 9.6236 246.098 9.0527 245.774 8.71323C245.466 8.37377 244.987 8.20404 244.339 8.20404C244.047 8.20404 243.753 8.24262 243.459 8.31977C243.182 8.39691 242.904 8.49722 242.626 8.62065V10.8657H239.988L239.756 10.588C239.941 9.89363 240.281 9.25328 240.775 8.66694C241.284 8.08061 241.941 7.60998 242.742 7.2551C243.545 6.90021 244.463 6.72276 245.496 6.72276C246.824 6.72276 247.764 7.0545 248.32 7.718C248.875 8.36606 249.153 9.29957 249.153 10.5185V16.4437C249.153 17.03 249.385 17.3232 249.847 17.3232C250.079 17.3232 250.319 17.2383 250.565 17.0686L250.889 17.7629C250.597 18.1641 250.241 18.4804 249.824 18.7119C249.408 18.9433 248.93 19.0591 248.389 19.0591C247.773 19.0591 247.287 18.9047 246.931 18.5962C246.577 18.2876 246.361 17.8169 246.283 17.1843H246.098C245.635 17.8479 245.119 18.3261 244.547 18.6193C243.992 18.9125 243.336 19.0591 242.58 19.0591ZM243.969 17.3C244.417 17.3 244.818 17.1998 245.172 16.9992C245.528 16.7985 245.89 16.5054 246.26 16.1196V13.62L244.547 14.0134C243.822 14.1678 243.297 14.3915 242.973 14.6847C242.649 14.9779 242.487 15.3635 242.487 15.8419C242.487 16.3048 242.626 16.6675 242.904 16.9297C243.182 17.1766 243.538 17.3 243.969 17.3ZM256.442 19.0591C255.424 19.0591 254.637 18.8353 254.082 18.3879C253.541 17.9404 253.271 17.2229 253.271 16.2354V8.57436H251.698V7.83372L255.817 4.38511L256.165 4.52398V7.27824L259.382 6.90792L259.636 7.18566L259.474 8.57436H256.165V15.5179C256.165 16.1814 256.28 16.6443 256.512 16.9066C256.743 17.1535 257.105 17.2769 257.6 17.2769C257.908 17.2769 258.201 17.2229 258.479 17.1149C258.757 17.0068 259.026 16.8526 259.289 16.652L259.798 17.5546C259.366 18.0021 258.864 18.3647 258.294 18.6425C257.738 18.9202 257.121 19.0591 256.442 19.0591ZM260.577 18.8045V17.925L261.271 17.7861C261.595 17.709 261.826 17.6241 261.965 17.5315C262.12 17.4389 262.22 17.2924 262.266 17.0917C262.312 16.8758 262.336 16.5517 262.336 16.1196V9.19928L260.715 8.6438V7.90316L264.905 6.76905L265.206 6.95421V16.1196C265.206 16.5517 265.229 16.8758 265.275 17.0917C265.321 17.2924 265.414 17.4389 265.553 17.5315C265.708 17.6241 265.946 17.709 266.27 17.7861L266.965 17.925V18.8045H260.577ZM263.609 5.31091C263.099 5.31091 262.676 5.1489 262.336 4.82487C262.012 4.4854 261.85 4.06879 261.85 3.57504C261.85 3.08128 262.012 2.67238 262.336 2.34835C262.676 2.02432 263.099 1.8623 263.609 1.8623C264.134 1.8623 264.558 2.02432 264.882 2.34835C265.206 2.67238 265.368 3.08128 265.368 3.57504C265.368 4.06879 265.206 4.4854 264.882 4.82487C264.558 5.1489 264.134 5.31091 263.609 5.31091ZM274.255 19.0591C273.036 19.0591 271.971 18.8121 271.061 18.3184C270.166 17.8092 269.472 17.0994 268.978 16.1891C268.484 15.2788 268.238 14.2063 268.238 12.9719C268.238 12.1387 268.368 11.3518 268.631 10.6111C268.893 9.85505 269.279 9.18384 269.788 8.59751C270.312 8.01117 270.96 7.55598 271.733 7.23195C272.519 6.89249 273.429 6.72276 274.464 6.72276C275.698 6.72276 276.762 6.97736 277.658 7.48655C278.568 7.9803 279.269 8.69009 279.764 9.61589C280.257 10.5263 280.504 11.5987 280.504 12.833C280.504 13.6663 280.373 14.4609 280.111 15.217C279.848 15.9576 279.454 16.6212 278.931 17.2075C278.421 17.7784 277.773 18.2335 276.986 18.573C276.2 18.897 275.288 19.0591 274.255 19.0591ZM274.487 17.8787C275.135 17.8787 275.667 17.678 276.084 17.2769C276.515 16.8603 276.839 16.3125 277.056 15.6336C277.271 14.9392 277.38 14.1909 277.38 13.3885C277.38 12.7096 277.318 12.0461 277.195 11.3981C277.086 10.75 276.901 10.1637 276.639 9.63904C276.392 9.11441 276.068 8.6978 275.667 8.3892C275.265 8.06517 274.779 7.90316 274.209 7.90316C273.575 7.90316 273.043 8.11146 272.612 8.52807C272.18 8.92925 271.855 9.47702 271.64 10.1714C271.439 10.8503 271.339 11.5987 271.339 12.4164C271.339 13.0799 271.393 13.7357 271.501 14.3838C271.624 15.0318 271.809 15.6259 272.057 16.1659C272.318 16.6906 272.642 17.1072 273.029 17.4158C273.429 17.7243 273.915 17.8787 274.487 17.8787ZM281.812 18.8045V17.925L282.507 17.7861C282.831 17.709 283.062 17.6241 283.201 17.5315C283.356 17.4389 283.455 17.2924 283.502 17.0917C283.548 16.8758 283.571 16.5517 283.571 16.1196V9.19928L281.951 8.66694V7.9263L286.14 6.76905L286.441 6.95421V8.89839H286.626C287.198 8.18861 287.823 7.64856 288.501 7.27824C289.195 6.90792 289.936 6.72276 290.723 6.72276C291.82 6.72276 292.676 7.04679 293.292 7.69485C293.926 8.34291 294.241 9.30729 294.241 10.588V16.0271C294.241 16.49 294.264 16.8371 294.31 17.0686C294.357 17.2846 294.458 17.4389 294.611 17.5315C294.766 17.6241 294.998 17.709 295.306 17.7861L296 17.925V18.8045H289.728V17.925L290.399 17.7861C290.677 17.6935 290.885 17.6086 291.024 17.5315C291.163 17.4389 291.255 17.2846 291.302 17.0686C291.348 16.8371 291.371 16.49 291.371 16.0271V11.2592C291.371 10.4105 291.186 9.77791 290.816 9.36129C290.461 8.94468 289.929 8.73638 289.219 8.73638C288.695 8.73638 288.223 8.84439 287.807 9.06041C287.39 9.27642 286.936 9.61589 286.441 10.0788V16.1196C286.441 16.5517 286.457 16.8758 286.487 17.0917C286.534 17.2924 286.626 17.4389 286.765 17.5315C286.904 17.6086 287.128 17.6935 287.436 17.7861L288.084 17.925V18.8045H281.812ZM57.978 43.3961V42.4471C58.3638 42.3391 58.68 42.2157 58.927 42.0768C59.1739 41.9224 59.3822 41.7141 59.5519 41.4519C59.737 41.1741 59.9222 40.8115 60.1074 40.3641L65.0604 28.4907L64.6669 27.4723L64.8521 27.1945H67.6295L72.7908 40.3409C72.9915 40.8501 73.1766 41.2359 73.3463 41.4982C73.516 41.7604 73.7166 41.9534 73.9481 42.0768C74.195 42.2002 74.5112 42.3237 74.897 42.4471V43.3961H67.9998V42.4471C68.6479 42.3391 69.1185 42.2233 69.4117 42.0999C69.7049 41.9765 69.8591 41.7759 69.8746 41.4982C69.9054 41.2204 69.8283 40.827 69.6431 40.3178L68.5785 37.7024H62.9079L61.9127 40.202C61.7275 40.7267 61.6504 41.1355 61.6812 41.4287C61.712 41.7065 61.8741 41.9148 62.1673 42.0536C62.4758 42.1925 62.9542 42.3237 63.6023 42.4471V43.3961H57.978ZM63.3708 36.3831H68.0924L65.801 30.5274H65.6159L63.3708 36.3831ZM80.017 43.6507C79.2917 43.6507 78.5589 43.5889 77.8182 43.4655C77.0929 43.3574 76.3909 43.1723 75.712 42.91V39.7623H76.5915L76.985 40.5724C77.2936 41.205 77.6639 41.6833 78.096 42.0074C78.5434 42.3159 79.1838 42.4703 80.017 42.4703C80.449 42.4703 80.8271 42.4085 81.1511 42.2851C81.4905 42.1462 81.7529 41.9611 81.938 41.7296C82.1232 41.4827 82.2158 41.1896 82.2158 40.8501C82.2158 40.4953 82.1154 40.202 81.9149 39.9706C81.7297 39.7391 81.4365 39.5232 81.0354 39.3225C80.6341 39.1219 80.0941 38.8983 79.4152 38.6513C78.8598 38.4354 78.3043 38.1808 77.7488 37.8875C77.2087 37.579 76.7612 37.1855 76.4064 36.7071C76.0514 36.2134 75.8741 35.6039 75.8741 34.8787C75.8741 34.2614 76.0051 33.7291 76.2675 33.2817C76.5298 32.8343 76.877 32.4639 77.309 32.1707C77.7565 31.8775 78.2657 31.6615 78.8366 31.5227C79.4229 31.3838 80.0402 31.3144 80.6882 31.3144C81.3053 31.3144 81.9457 31.3838 82.6093 31.5227C83.2881 31.6615 83.913 31.8622 84.484 32.1244V35.1333H83.6045L83.211 34.3464C82.9023 33.7138 82.532 33.2509 82.1001 32.9577C81.6835 32.6644 81.1511 32.5179 80.5031 32.5179C80.1173 32.5179 79.7701 32.5797 79.4615 32.7031C79.1528 32.8111 78.9137 32.9808 78.744 33.2122C78.5742 33.4437 78.4894 33.7291 78.4894 34.0686C78.4894 34.5623 78.6977 34.9636 79.1144 35.2722C79.5463 35.5807 80.2485 35.9202 81.2206 36.2905C81.7914 36.5065 82.3547 36.7611 82.9101 37.0543C83.481 37.3475 83.9517 37.7332 84.322 38.2116C84.6923 38.6745 84.8775 39.2839 84.8775 40.04C84.8775 40.8578 84.646 41.5368 84.1831 42.0768C83.7356 42.6168 83.1416 43.0181 82.401 43.2803C81.6756 43.5273 80.881 43.6507 80.017 43.6507ZM90.7252 43.6507C89.9999 43.6507 89.2671 43.5889 88.5264 43.4655C87.8011 43.3574 87.0991 43.1723 86.4202 42.91V39.7623H87.2997L87.6932 40.5724C88.0018 41.205 88.3721 41.6833 88.8042 42.0074C89.2516 42.3159 89.892 42.4703 90.7252 42.4703C91.1572 42.4703 91.5353 42.4085 91.8593 42.2851C92.1987 42.1462 92.4611 41.9611 92.6462 41.7296C92.8314 41.4827 92.924 41.1896 92.924 40.8501C92.924 40.4953 92.8236 40.202 92.6231 39.9706C92.4379 39.7391 92.1447 39.5232 91.7436 39.3225C91.3423 39.1219 90.8023 38.8983 90.1234 38.6513C89.568 38.4354 89.0125 38.1808 88.457 37.8875C87.9168 37.579 87.4694 37.1855 87.1146 36.7071C86.7596 36.2134 86.5822 35.6039 86.5822 34.8787C86.5822 34.2614 86.7133 33.7291 86.9757 33.2817C87.238 32.8343 87.5851 32.4639 88.0172 32.1707C88.4647 31.8775 88.9739 31.6615 89.5448 31.5227C90.1311 31.3838 90.7484 31.3144 91.3964 31.3144C92.0135 31.3144 92.6539 31.3838 93.3175 31.5227C93.9963 31.6615 94.6212 31.8622 95.1922 32.1244V35.1333H94.3127L93.9192 34.3464C93.6105 33.7138 93.2402 33.2509 92.8083 32.9577C92.3916 32.6644 91.8593 32.5179 91.2113 32.5179C90.8255 32.5179 90.4783 32.5797 90.1697 32.7031C89.861 32.8111 89.6219 32.9808 89.4522 33.2122C89.2824 33.4437 89.1976 33.7291 89.1976 34.0686C89.1976 34.5623 89.4059 34.9636 89.8225 35.2722C90.2545 35.5807 90.9567 35.9202 91.9287 36.2905C92.4996 36.5065 93.0629 36.7611 93.6183 37.0543C94.1892 37.3475 94.6599 37.7332 95.0302 38.2116C95.4005 38.6745 95.5857 39.2839 95.5857 40.04C95.5857 40.8578 95.3542 41.5368 94.8913 42.0768C94.4437 42.6168 93.8498 43.0181 93.1091 43.2803C92.3838 43.5273 91.5892 43.6507 90.7252 43.6507ZM103.19 43.6507C101.971 43.6507 100.906 43.4037 99.9957 42.91C99.1007 42.4008 98.4063 41.691 97.9126 40.7807C97.4189 39.8703 97.172 38.7979 97.172 37.5635C97.172 36.7303 97.3032 35.9434 97.5654 35.2027C97.8277 34.4466 98.2135 33.7754 98.7227 33.1891C99.2473 32.6028 99.8954 32.1476 100.667 31.8235C101.454 31.484 102.364 31.3144 103.398 31.3144C104.632 31.3144 105.697 31.569 106.592 32.0781C107.502 32.5719 108.204 33.2817 108.698 34.2075C109.192 35.1178 109.439 36.1903 109.439 37.4246C109.439 38.2579 109.308 39.0525 109.045 39.8086C108.783 40.5492 108.39 41.2128 107.865 41.7991C107.356 42.37 106.708 42.8251 105.921 43.1646C105.134 43.4886 104.224 43.6507 103.19 43.6507ZM103.421 42.4703C104.069 42.4703 104.602 42.2696 105.018 41.8685C105.45 41.4519 105.774 40.9041 105.99 40.2252C106.206 39.5308 106.314 38.7825 106.314 37.9801C106.314 37.3013 106.252 36.6377 106.129 35.9897C106.021 35.3416 105.836 34.7553 105.574 34.2306C105.327 33.706 105.003 33.2894 104.602 32.9808C104.2 32.6568 103.714 32.4948 103.143 32.4948C102.511 32.4948 101.978 32.7031 101.546 33.1197C101.114 33.5208 100.79 34.0686 100.574 34.763C100.374 35.4418 100.273 36.1903 100.273 37.008C100.273 37.6716 100.327 38.3273 100.435 38.9754C100.559 39.6234 100.744 40.2175 100.991 40.7575C101.253 41.2822 101.577 41.6988 101.963 42.0074C102.364 42.3159 102.85 42.4703 103.421 42.4703ZM116.464 43.6507C115.431 43.6507 114.497 43.4269 113.664 42.9795C112.83 42.532 112.175 41.8608 111.696 40.9658C111.218 40.0708 110.979 38.9754 110.979 37.6792C110.979 36.3831 111.241 35.2645 111.766 34.3232C112.306 33.3666 113.039 32.626 113.965 32.1013C114.906 31.5766 115.947 31.3144 117.089 31.3144C117.83 31.3144 118.54 31.3915 119.218 31.5458C119.913 31.7002 120.53 31.9238 121.07 32.217V35.7582H120.191L119.705 34.7861C119.334 34.0609 118.918 33.4977 118.455 33.0965C118.007 32.6954 117.452 32.4948 116.788 32.4948C116.217 32.4948 115.724 32.6799 115.307 33.0502C114.89 33.4051 114.566 33.8989 114.335 34.5315C114.103 35.1641 113.988 35.8971 113.988 36.7303C113.988 37.8104 114.142 38.7131 114.451 39.4383C114.775 40.1481 115.222 40.6804 115.793 41.0353C116.364 41.3901 117.012 41.5676 117.737 41.5676C118.37 41.5676 118.925 41.4287 119.404 41.151C119.897 40.8733 120.345 40.5492 120.746 40.1789L121.417 40.8733C121.109 41.3979 120.7 41.8685 120.191 42.2851C119.697 42.7017 119.134 43.0334 118.501 43.2803C117.868 43.5273 117.19 43.6507 116.464 43.6507ZM122.473 43.3961V42.5166L123.167 42.3777C123.491 42.3006 123.723 42.2157 123.862 42.1231C124.016 42.0305 124.116 41.884 124.162 41.6833C124.209 41.4674 124.232 41.1433 124.232 40.7112V33.7909L122.612 33.2354V32.4948L126.801 31.3606L127.102 31.5458V40.7112C127.102 41.1433 127.125 41.4674 127.171 41.6833C127.218 41.884 127.31 42.0305 127.449 42.1231C127.603 42.2157 127.842 42.3006 128.166 42.3777L128.861 42.5166V43.3961H122.473ZM125.505 29.9025C124.996 29.9025 124.571 29.7405 124.232 29.4165C123.908 29.077 123.746 28.6603 123.746 28.1666C123.746 27.6729 123.908 27.264 124.232 26.9399C124.571 26.6159 124.996 26.4539 125.505 26.4539C126.029 26.4539 126.454 26.6159 126.778 26.9399C127.102 27.264 127.264 27.6729 127.264 28.1666C127.264 28.6603 127.102 29.077 126.778 29.4165C126.454 29.7405 126.029 29.9025 125.505 29.9025ZM133.165 43.6507C132.609 43.6507 132.092 43.5581 131.614 43.3729C131.151 43.1723 130.781 42.8792 130.503 42.4934C130.225 42.1076 130.087 41.6139 130.087 41.0121C130.087 40.1634 130.395 39.4691 131.012 38.9291C131.63 38.3891 132.594 38.0033 133.905 37.7718L136.845 37.2626V35.0176C136.845 34.2152 136.683 33.6443 136.359 33.3048C136.05 32.9653 135.572 32.7956 134.924 32.7956C134.631 32.7956 134.338 32.8343 134.044 32.9114C133.767 32.9885 133.489 33.0889 133.211 33.2122V35.4573H130.573L130.341 35.1796C130.526 34.4852 130.866 33.8448 131.359 33.2585C131.869 32.6722 132.525 32.2015 133.327 31.8467C134.129 31.4919 135.047 31.3144 136.081 31.3144C137.408 31.3144 138.349 31.6461 138.905 32.3096C139.46 32.9577 139.738 33.8911 139.738 35.1101V41.0353C139.738 41.6216 139.969 41.9148 140.432 41.9148C140.664 41.9148 140.903 41.8299 141.15 41.6602L141.474 42.3545C141.181 42.7557 140.826 43.072 140.409 43.3035C139.993 43.5349 139.514 43.6507 138.974 43.6507C138.357 43.6507 137.871 43.4963 137.516 43.1878C137.161 42.8792 136.945 42.4085 136.868 41.7759H136.683C136.22 42.4394 135.703 42.9177 135.132 43.2109C134.577 43.5041 133.921 43.6507 133.165 43.6507ZM134.554 41.8916C135.001 41.8916 135.402 41.7914 135.757 41.5908C136.112 41.3901 136.475 41.097 136.845 40.7112V38.2116L135.132 38.605C134.407 38.7594 133.882 38.983 133.558 39.2762C133.234 39.5695 133.072 39.9551 133.072 40.4335C133.072 40.8964 133.211 41.2591 133.489 41.5213C133.767 41.7682 134.122 41.8916 134.554 41.8916ZM147.027 43.6507C146.009 43.6507 145.222 43.4269 144.666 42.9795C144.126 42.532 143.855 41.8145 143.855 40.827V33.166H142.282V32.4253L146.402 28.9767L146.749 29.1156V31.8698L149.966 31.4995L150.221 31.7773L150.059 33.166H146.749V40.1095C146.749 40.773 146.865 41.2359 147.097 41.4982C147.328 41.7451 147.69 41.8685 148.184 41.8685C148.492 41.8685 148.786 41.8145 149.064 41.7065C149.342 41.5984 149.611 41.4442 149.874 41.2436L150.383 42.1462C149.951 42.5937 149.449 42.9563 148.879 43.234C148.323 43.5118 147.706 43.6507 147.027 43.6507ZM151.161 43.3961V42.5166L151.856 42.3777C152.18 42.3006 152.411 42.2157 152.55 42.1231C152.705 42.0305 152.805 41.884 152.851 41.6833C152.897 41.4674 152.92 41.1433 152.92 40.7112V33.7909L151.3 33.2354V32.4948L155.489 31.3606L155.79 31.5458V40.7112C155.79 41.1433 155.814 41.4674 155.86 41.6833C155.906 41.884 155.999 42.0305 156.138 42.1231C156.292 42.2157 156.531 42.3006 156.855 42.3777L157.549 42.5166V43.3961H151.161ZM154.193 29.9025C153.684 29.9025 153.26 29.7405 152.92 29.4165C152.596 29.077 152.434 28.6603 152.434 28.1666C152.434 27.6729 152.596 27.264 152.92 26.9399C153.26 26.6159 153.684 26.4539 154.193 26.4539C154.718 26.4539 155.142 26.6159 155.466 26.9399C155.79 27.264 155.952 27.6729 155.952 28.1666C155.952 28.6603 155.79 29.077 155.466 29.4165C155.142 29.7405 154.718 29.9025 154.193 29.9025ZM164.84 43.6507C163.621 43.6507 162.556 43.4037 161.646 42.91C160.751 42.4008 160.056 41.691 159.563 40.7807C159.068 39.8703 158.822 38.7979 158.822 37.5635C158.822 36.7303 158.953 35.9434 159.216 35.2027C159.478 34.4466 159.864 33.7754 160.373 33.1891C160.897 32.6028 161.545 32.1476 162.317 31.8235C163.104 31.484 164.014 31.3144 165.048 31.3144C166.282 31.3144 167.347 31.569 168.242 32.0781C169.152 32.5719 169.854 33.2817 170.349 34.2075C170.842 35.1178 171.089 36.1903 171.089 37.4246C171.089 38.2579 170.958 39.0525 170.696 39.8086C170.432 40.5492 170.039 41.2128 169.515 41.7991C169.006 42.37 168.358 42.8251 167.571 43.1646C166.784 43.4886 165.873 43.6507 164.84 43.6507ZM165.072 42.4703C165.72 42.4703 166.252 42.2696 166.669 41.8685C167.1 41.4519 167.424 40.9041 167.641 40.2252C167.856 39.5308 167.965 38.7825 167.965 37.9801C167.965 37.3013 167.902 36.6377 167.78 35.9897C167.671 35.3416 167.486 34.7553 167.224 34.2306C166.977 33.706 166.653 33.2894 166.252 32.9808C165.85 32.6568 165.364 32.4948 164.794 32.4948C164.16 32.4948 163.628 32.7031 163.197 33.1197C162.764 33.5208 162.44 34.0686 162.225 34.763C162.024 35.4418 161.924 36.1903 161.924 37.008C161.924 37.6716 161.977 38.3273 162.086 38.9754C162.209 39.6234 162.394 40.2175 162.641 40.7575C162.903 41.2822 163.227 41.6988 163.613 42.0074C164.014 42.3159 164.5 42.4703 165.072 42.4703ZM172.397 43.3961V42.5166L173.091 42.3777C173.415 42.3006 173.647 42.2157 173.786 42.1231C173.94 42.0305 174.04 41.884 174.087 41.6833C174.133 41.4674 174.156 41.1433 174.156 40.7112V33.7909L172.536 33.2585V32.5179L176.725 31.3606L177.026 31.5458V33.49H177.211C177.782 32.7802 178.407 32.2402 179.086 31.8698C179.78 31.4995 180.521 31.3144 181.308 31.3144C182.404 31.3144 183.261 31.6384 183.877 32.2864C184.51 32.9345 184.826 33.8989 184.826 35.1796V40.6187C184.826 41.0816 184.849 41.4287 184.895 41.6602C184.942 41.8762 185.043 42.0305 185.196 42.1231C185.351 42.2157 185.582 42.3006 185.89 42.3777L186.585 42.5166V43.3961H180.313V42.5166L180.984 42.3777C181.261 42.2851 181.47 42.2002 181.609 42.1231C181.748 42.0305 181.84 41.8762 181.886 41.6602C181.933 41.4287 181.956 41.0816 181.956 40.6187V35.8508C181.956 35.0021 181.771 34.3695 181.4 33.9529C181.046 33.5363 180.514 33.328 179.803 33.328C179.28 33.328 178.808 33.436 178.391 33.652C177.975 33.868 177.521 34.2075 177.026 34.6704V40.7112C177.026 41.1433 177.042 41.4674 177.072 41.6833C177.119 41.884 177.211 42.0305 177.35 42.1231C177.489 42.2002 177.713 42.2851 178.021 42.3777L178.669 42.5166V43.3961H172.397ZM191.937 37.1006C190.903 37.1006 189.977 36.8768 189.16 36.4294C188.357 35.9665 187.725 35.3339 187.262 34.5315C186.799 33.7291 186.567 32.8111 186.567 31.7773C186.567 30.7434 186.799 29.8254 187.262 29.023C187.725 28.2206 188.357 27.5957 189.16 27.1483C189.977 26.6854 190.903 26.4539 191.937 26.4539C192.986 26.4539 193.912 26.6854 194.715 27.1483C195.516 27.5957 196.15 28.2206 196.612 29.023C197.075 29.8254 197.307 30.7434 197.307 31.7773C197.307 32.8111 197.075 33.7291 196.612 34.5315C196.15 35.3339 195.516 35.9665 194.715 36.4294C193.912 36.8768 192.986 37.1006 191.937 37.1006ZM191.937 36.3368C192.817 36.3368 193.595 36.144 194.275 35.7582C194.953 35.3571 195.486 34.8169 195.872 34.1381C196.272 33.4437 196.474 32.6568 196.474 31.7773C196.474 30.8823 196.272 30.0953 195.872 29.4165C195.486 28.7376 194.953 28.2053 194.275 27.8195C193.595 27.4183 192.817 27.2177 191.937 27.2177C191.058 27.2177 190.271 27.4183 189.576 27.8195C188.896 28.2053 188.364 28.7376 187.979 29.4165C187.593 30.0953 187.401 30.8823 187.401 31.7773C187.401 32.6568 187.593 33.4437 187.979 34.1381C188.364 34.8169 188.896 35.3571 189.576 35.7582C190.271 36.144 191.058 36.3368 191.937 36.3368ZM189.275 34.4158V33.976L189.53 33.9297C189.699 33.8835 189.808 33.8217 189.854 33.7446C189.915 33.6675 189.947 33.5594 189.947 33.4206V30.0645C189.947 29.8794 189.915 29.7482 189.854 29.6711C189.808 29.594 189.699 29.5399 189.53 29.509L189.275 29.4628V29.023H192.03C192.817 29.023 193.418 29.1619 193.835 29.4396C194.252 29.7019 194.46 30.0877 194.46 30.5969C194.46 30.998 194.328 31.322 194.066 31.569C193.803 31.8159 193.518 31.9701 193.21 32.0319L194.691 33.976V34.4158H193.372L191.914 32.2402L191.266 32.217V33.4206C191.266 33.5594 191.289 33.6675 191.335 33.7446C191.382 33.8064 191.497 33.868 191.683 33.9297L191.914 33.976V34.4158H189.275ZM191.266 31.569H191.937C192.307 31.569 192.585 31.484 192.77 31.3144C192.956 31.1447 193.048 30.9132 193.048 30.62C193.048 30.296 192.947 30.0569 192.747 29.9025C192.562 29.7482 192.299 29.6711 191.96 29.6711H191.266V31.569Z" fill="#272423"/>
</svg>
